<?xml version="1.0" encoding="UTF-8" standalone="no"?>
<!-- Created with Inkscape (http://www.inkscape.org/) -->

<svg
   xmlns:dc="http://purl.org/dc/elements/1.1/"
   xmlns:cc="http://creativecommons.org/ns#"
   xmlns:rdf="http://www.w3.org/1999/02/22-rdf-syntax-ns#"
   xmlns:svg="http://www.w3.org/2000/svg"
   xmlns="http://www.w3.org/2000/svg"
   xmlns:sodipodi="http://sodipodi.sourceforge.net/DTD/sodipodi-0.dtd"
   xmlns:inkscape="http://www.inkscape.org/namespaces/inkscape"
   width="46.589806mm"
   height="37.996101mm"
   viewBox="0 0 46.589806 37.996101"
   version="1.1"
   id="svg8"
   inkscape:version="0.92.1 r15371"
   sodipodi:docname="logo.svg">
  <defs
     id="defs2" />
  <sodipodi:namedview
     id="base"
     pagecolor="#ffffff"
     bordercolor="#666666"
     borderopacity="1.0"
     inkscape:pageopacity="0.0"
     inkscape:pageshadow="2"
     inkscape:zoom="1.257259"
     inkscape:cx="-50.585422"
     inkscape:cy="74.735611"
     inkscape:document-units="mm"
     inkscape:current-layer="layer2"
     showgrid="false"
     inkscape:snap-global="true"
     inkscape:object-paths="true"
     inkscape:window-width="1366"
     inkscape:window-height="707"
     inkscape:window-x="-8"
     inkscape:window-y="-8"
     inkscape:window-maximized="1"
     fit-margin-top="0"
     fit-margin-left="0"
     fit-margin-right="0"
     fit-margin-bottom="0" />
  <metadata
     id="metadata5">
    <rdf:RDF>
      <cc:Work
         rdf:about="">
        <dc:format>image/svg+xml</dc:format>
        <dc:type
           rdf:resource="http://purl.org/dc/dcmitype/StillImage" />
        <dc:title></dc:title>
      </cc:Work>
    </rdf:RDF>
  </metadata>
  <g
     inkscape:groupmode="layer"
     id="layer2"
     inkscape:label="fondo"
     style="display:none"
     sodipodi:insensitive="true"
     transform="translate(-20.104913,-241.72893)">
    <rect
       style="opacity:1;fill:#000000;fill-opacity:1;fill-rule:nonzero;stroke:none;stroke-width:0.76499993;stroke-linecap:round;stroke-linejoin:round;stroke-miterlimit:4;stroke-dasharray:none;stroke-dashoffset:1.88429081;stroke-opacity:1;paint-order:normal"
       id="rect4573"
       width="50"
       height="40.000015"
       x="18.514112"
       y="240.71295" />
  </g>
  <g
     inkscape:label="logo"
     inkscape:groupmode="layer"
     id="layer1"
     style="display:inline"
     sodipodi:insensitive="true"
     transform="translate(-20.104913,-241.72893)">
    <path
       style="color:#000000;font-style:normal;font-variant:normal;font-weight:normal;font-stretch:normal;font-size:medium;line-height:normal;font-family:sans-serif;font-variant-ligatures:normal;font-variant-position:normal;font-variant-caps:normal;font-variant-numeric:normal;font-variant-alternates:normal;font-feature-settings:normal;text-indent:0;text-align:start;text-decoration:none;text-decoration-line:none;text-decoration-style:solid;text-decoration-color:#000000;letter-spacing:normal;word-spacing:normal;text-transform:none;writing-mode:lr-tb;direction:ltr;text-orientation:mixed;dominant-baseline:auto;baseline-shift:baseline;text-anchor:start;white-space:normal;shape-padding:0;clip-rule:nonzero;display:inline;overflow:visible;visibility:visible;opacity:1;isolation:auto;mix-blend-mode:normal;color-interpolation:sRGB;color-interpolation-filters:linearRGB;solid-color:#000000;solid-opacity:1;vector-effect:none;fill:#00fffe;fill-opacity:1;fill-rule:nonzero;stroke:none;stroke-width:1.99999976;stroke-linecap:round;stroke-linejoin:round;stroke-miterlimit:4;stroke-dasharray:none;stroke-dashoffset:0;stroke-opacity:1;color-rendering:auto;image-rendering:auto;shape-rendering:auto;text-rendering:auto;enable-background:accumulate"
       d="m 29.159295,241.74233 a 0.32868744,0.32868744 0 0 0 -0.308114,0.24905 l -3.570267,14.39469 -1.516176,-12.08319 a 0.32868744,0.32868744 0 0 0 -0.651533,-0.005 l -3.004108,21.43958 a 0.32868744,0.32868744 0 1 0 0.65089,0.0911 l 2.66069,-18.98879 1.427593,11.37838 a 0.32868744,0.32868744 0 0 0 0.645114,0.0379 l 3.545233,-14.2907 3.717905,35.46518 a 0.32884844,0.32884844 0 1 0 0.654099,-0.0687 L 29.497578,242.0358 a 0.32868744,0.32868744 0 0 0 -0.338283,-0.29399 z"
       id="path4514"
       inkscape:connector-curvature="0" />
    <path
       style="color:#000000;font-style:normal;font-variant:normal;font-weight:normal;font-stretch:normal;font-size:medium;line-height:normal;font-family:sans-serif;font-variant-ligatures:normal;font-variant-position:normal;font-variant-caps:normal;font-variant-numeric:normal;font-variant-alternates:normal;font-feature-settings:normal;text-indent:0;text-align:start;text-decoration:none;text-decoration-line:none;text-decoration-style:solid;text-decoration-color:#000000;letter-spacing:normal;word-spacing:normal;text-transform:none;writing-mode:lr-tb;direction:ltr;text-orientation:mixed;dominant-baseline:auto;baseline-shift:baseline;text-anchor:start;white-space:normal;shape-padding:0;clip-rule:nonzero;display:inline;overflow:visible;visibility:visible;opacity:1;isolation:auto;mix-blend-mode:normal;color-interpolation:sRGB;color-interpolation-filters:linearRGB;solid-color:#000000;solid-opacity:1;vector-effect:none;fill:#00fffe;fill-opacity:1;fill-rule:nonzero;stroke:none;stroke-width:1.99999976;stroke-linecap:round;stroke-linejoin:round;stroke-miterlimit:4;stroke-dasharray:none;stroke-dashoffset:0;stroke-opacity:1;color-rendering:auto;image-rendering:auto;shape-rendering:auto;text-rendering:auto;enable-background:accumulate"
       d="m 26.857429,243.11857 a 0.32868744,0.32868744 0 0 0 -0.335716,0.32095 l -1.141304,30.43008 a 0.32868744,0.32868744 0 0 0 0.492981,0.2972 l 40.650468,-23.51742 a 0.32868744,0.32868744 0 1 0 -0.329301,-0.56873 l -40.135014,23.21894 1.118837,-29.83504 a 0.32868744,0.32868744 0 0 0 -0.320951,-0.34598 z"
       id="path4518"
       inkscape:connector-curvature="0" />
    <path
       style="color:#000000;font-style:normal;font-variant:normal;font-weight:normal;font-stretch:normal;font-size:medium;line-height:normal;font-family:sans-serif;font-variant-ligatures:normal;font-variant-position:normal;font-variant-caps:normal;font-variant-numeric:normal;font-variant-alternates:normal;font-feature-settings:normal;text-indent:0;text-align:start;text-decoration:none;text-decoration-line:none;text-decoration-style:solid;text-decoration-color:#000000;letter-spacing:normal;word-spacing:normal;text-transform:none;writing-mode:lr-tb;direction:ltr;text-orientation:mixed;dominant-baseline:auto;baseline-shift:baseline;text-anchor:start;white-space:normal;shape-padding:0;clip-rule:nonzero;display:inline;overflow:visible;visibility:visible;opacity:1;isolation:auto;mix-blend-mode:normal;color-interpolation:sRGB;color-interpolation-filters:linearRGB;solid-color:#000000;solid-opacity:1;vector-effect:none;fill:#00fffc;fill-opacity:1;fill-rule:nonzero;stroke:none;stroke-width:1.99999976;stroke-linecap:round;stroke-linejoin:miter;stroke-miterlimit:4;stroke-dasharray:none;stroke-dashoffset:0;stroke-opacity:1;color-rendering:auto;image-rendering:auto;shape-rendering:auto;text-rendering:auto;enable-background:accumulate"
       d="m 35.596303,242.157 a 0.32868744,0.32868744 0 0 0 -0.315817,0.37102 l 4.007403,34.61657 a 0.32868744,0.32868744 0 1 0 0.652816,-0.0757 L 35.933302,242.45228 A 0.32868744,0.32868744 0 0 0 35.596303,242.157 Z"
       id="path4520"
       inkscape:connector-curvature="0" />
    <path
       style="color:#000000;font-style:normal;font-variant:normal;font-weight:normal;font-stretch:normal;font-size:medium;line-height:normal;font-family:sans-serif;font-variant-ligatures:normal;font-variant-position:normal;font-variant-caps:normal;font-variant-numeric:normal;font-variant-alternates:normal;font-feature-settings:normal;text-indent:0;text-align:start;text-decoration:none;text-decoration-line:none;text-decoration-style:solid;text-decoration-color:#000000;letter-spacing:normal;word-spacing:normal;text-transform:none;writing-mode:lr-tb;direction:ltr;text-orientation:mixed;dominant-baseline:auto;baseline-shift:baseline;text-anchor:start;white-space:normal;shape-padding:0;clip-rule:nonzero;display:inline;overflow:visible;visibility:visible;opacity:1;isolation:auto;mix-blend-mode:normal;color-interpolation:sRGB;color-interpolation-filters:linearRGB;solid-color:#000000;solid-opacity:1;vector-effect:none;fill:#ff0000;fill-opacity:1;fill-rule:nonzero;stroke:none;stroke-width:2.06499982;stroke-linecap:round;stroke-linejoin:miter;stroke-miterlimit:4;stroke-dasharray:none;stroke-dashoffset:0;stroke-opacity:1;color-rendering:auto;image-rendering:auto;shape-rendering:auto;text-rendering:auto;enable-background:accumulate"
       d="m 60.56635,241.74104 c -0.407893,-0.0418 -0.955791,0.0262 -1.71453,0.17909 -1.517461,0.30609 -3.843005,0.97704 -7.034621,2.0143 -6.383226,2.07453 -16.216102,5.6144 -29.764417,10.61452 a 0.33936984,0.33936984 0 1 0 0.234936,0.63676 c 13.545862,-4.99921 23.377186,-8.53847 29.739386,-10.60617 3.181103,-1.03385 5.498713,-1.69987 6.958881,-1.99439 0.730082,-0.14726 1.254871,-0.19574 1.511033,-0.16947 0.0311,0.003 0.01343,0.001 0.03467,0.006 -0.05638,0.10323 -0.23659,0.35693 -0.647679,0.71059 -0.452662,0.38942 -1.109753,0.87996 -1.961019,1.46418 -1.702524,1.16842 -4.181976,2.7133 -7.398577,4.6294 -6.433198,3.83221 -15.818722,9.15274 -27.895201,15.96671 a 0.33945817,0.33945817 0 1 0 0.33379,0.59119 c 12.077094,-6.81432 21.463435,-12.13567 27.908676,-15.97506 3.222626,-1.91969 5.709366,-3.46811 7.435168,-4.65252 0.862907,-0.5922 1.535299,-1.0927 2.020068,-1.50975 0.484778,-0.41704 0.791987,-0.71413 0.91408,-1.08289 0.06104,-0.18438 0.03077,-0.45375 -0.12646,-0.60789 -0.157306,-0.15413 -0.344238,-0.19412 -0.548182,-0.21504 z"
       id="path4508"
       inkscape:connector-curvature="0" />
  </g>
  <g
     inkscape:groupmode="layer"
     id="layer3"
     inkscape:label="nombre"
     style="display:none"
     sodipodi:insensitive="true"
     transform="translate(-20.104913,-241.72893)">
    <path
       inkscape:connector-curvature="0"
       id="path4531"
       style="font-style:normal;font-variant:normal;font-weight:normal;font-stretch:normal;font-size:medium;line-height:2.15041971px;font-family:'Maiandra GD';-inkscape-font-specification:'Maiandra GD';letter-spacing:3.70416665px;word-spacing:0px;opacity:1;fill:#ff0000;fill-opacity:1;stroke:none;stroke-width:0.26458329"
       d="m 44.242928,268.53157 c 0.05795,0.0466 0.04903,0.075 0.05258,0.15249 0.0073,0.15885 0.0154,0.28999 0.03975,0.54622 0.03419,0.35967 0.03246,0.39953 0.06815,0.69931 0.03569,0.29977 0.08972,0.44639 0.115366,0.67499 0.0057,0.0506 -0.07711,0.10618 -0.113861,0.12023 -0.03637,0.014 -0.07225,0.0202 -0.107068,0.0202 -0.03656,0 -0.06529,-0.0101 -0.08618,-0.0301 -0.0209,-0.0202 -0.03613,-0.0526 -0.0457,-0.0973 -0.0052,-0.0268 -0.08021,-0.25761 -0.125182,-0.59174 -0.04497,-0.33414 -0.05419,-0.43179 -0.0932,-0.80909 -0.181931,0.44071 -0.07934,0.15911 -0.280424,0.6837 -0.03656,0.0973 -0.168979,0.30703 -0.182905,0.3417 -0.01655,0.0425 -0.05465,0.0942 -0.129999,0.13201 -0.07535,0.0378 -0.182538,0.0196 -0.220471,-0.007 -0.03413,-0.0242 -0.104935,-0.0994 -0.146319,-0.22353 -0.01742,-0.0522 -0.09289,-0.2327 -0.136862,-0.34312 -0.128651,-0.32303 -0.14013,-0.3986 -0.209432,-0.55186 -0.03186,0.28543 -0.03935,0.34344 -0.06014,0.53529 -0.0208,0.19185 -0.0464,0.43624 -0.07249,0.54576 -0.0261,0.10953 -0.04339,0.35877 -0.07802,0.38155 -0.08582,0.0565 -0.290098,0.006 -0.355488,-0.008 -0.0252,-0.052 0.163536,-0.59453 0.199226,-0.89543 0.03569,-0.30088 0.0586,-0.46524 0.0586,-0.83213 0,-0.0884 -0.0056,-0.10974 -0.01346,-0.18468 -0.007,-0.0761 0.02419,-0.13524 0.07545,-0.15779 0.110789,-0.0405 0.309153,-0.0284 0.329336,-0.0183 0.05409,0.0275 0.196289,0.46675 0.307662,0.73602 0.09836,0.25055 0.181677,0.44596 0.217367,0.5265 0.03656,0.0805 0.100909,0.0571 0.116597,0.033 0.01569,-0.0242 0.0011,-0.0919 0.215231,-0.65118 0.08879,-0.23041 0.150736,-0.32722 0.24039,-0.50377 0.04159,-0.0819 0.07993,-0.19083 0.142483,-0.20673 0.113713,-0.0288 0.239184,-0.0493 0.279016,-0.0173 z"
       sodipodi:nodetypes="ssssssscczccczsssczzsczsccscczcsss" />
    <path
       inkscape:connector-curvature="0"
       id="path4535"
       style="font-style:normal;font-variant:normal;font-weight:normal;font-stretch:normal;font-size:medium;line-height:2.15041971px;font-family:'Maiandra GD';-inkscape-font-specification:'Maiandra GD';letter-spacing:3.70416665px;word-spacing:0px;fill:#ff0000;fill-opacity:1;stroke:none;stroke-width:0.26458329"
       d="m 48.3126,269.58111 q 0.114613,-0.16178 0.216634,-0.24036 0.102068,-0.0801 0.198958,-0.0801 0.08221,0 0.137923,0.0555 0.05721,0.0539 0.05498,0.13404 -0.0013,0.0524 -0.03666,0.10323 -0.03367,0.0493 -0.101112,0.0986 -0.0217,-0.0678 -0.05594,-0.10015 -0.03282,-0.0323 -0.0813,-0.0323 -0.07194,0 -0.153323,0.0755 -0.08134,0.074 -0.161584,0.21417 -0.0093,0.0693 -0.01578,0.14174 -0.0064,0.0709 -0.0083,0.13867 -0.0065,0.2311 0.01284,0.38518 0.02081,0.15407 0.06928,0.25269 -0.05962,0.0323 -0.117355,0.0493 -0.05625,0.017 -0.110564,0.017 -0.07194,0 -0.09881,-0.037 -0.02534,-0.0385 -0.02226,-0.15253 9.92e-4,-0.0416 0.02365,-0.31894 0.02395,-0.27887 0.03047,-0.51767 0.0055,-0.19567 -0.0064,-0.30045 -0.01181,-0.10477 -0.04328,-0.18488 0.02958,-0.0108 0.05767,-0.0154 0.02948,-0.006 0.06037,-0.006 0.08515,0 0.125051,0.0431 0.03995,0.0416 0.0375,0.12943 -6.61e-4,0.0201 -0.0045,0.0555 -0.0026,0.0339 -0.0085,0.0924 z" />
    <path
       inkscape:connector-curvature="0"
       id="path4537"
       style="font-style:normal;font-variant:normal;font-weight:normal;font-stretch:normal;font-size:medium;line-height:2.15041971px;font-family:'Maiandra GD';-inkscape-font-specification:'Maiandra GD';letter-spacing:3.70416665px;word-spacing:0px;fill:#ff0000;fill-opacity:1;stroke:none;stroke-width:0.26458329"
       d="m 50.150841,269.55355 q -0.03272,0 -0.09059,0.003 -0.05782,0.002 -0.07517,0.002 -0.07901,0 -0.111774,-0.0164 -0.03077,-0.0179 -0.03077,-0.0595 0,-0.0194 0.0077,-0.0446 0.0097,-0.0268 0.02888,-0.0595 0.01552,0 0.05204,0.002 0.03662,0.002 0.05782,0.002 0.0501,0 0.159959,-0.005 0.0136,0 0.02127,-0.002 0,-0.0164 0.0017,-0.0491 0.0017,-0.0326 0.0017,-0.0476 0,-0.11603 -0.01935,-0.2038 -0.01935,-0.0892 -0.05974,-0.15618 0.08287,-0.0312 0.1484,-0.0476 0.06553,-0.0164 0.111781,-0.0164 0.07902,0 0.113706,0.0387 0.03662,0.0372 0.03662,0.12347 0,0.0372 -0.0174,0.23353 -0.0058,0.0729 -0.0097,0.11603 0.111788,-0.012 0.200444,-0.0179 0.09057,-0.006 0.161895,-0.006 0.06359,0 0.09058,0.0179 0.02885,0.0179 0.02885,0.058 0,0.0223 -0.0174,0.0565 -0.0174,0.0327 -0.05011,0.0744 -0.05011,-0.009 -0.105988,-0.0134 -0.05589,-0.004 -0.134916,-0.004 -0.01356,0 -0.08094,0.003 -0.06746,10e-4 -0.115632,0.003 -0.0174,0.23206 -0.02511,0.3823 -0.0077,0.15023 -0.0077,0.24543 0,0.20677 0.04623,0.29007 0.04818,0.0818 0.159966,0.0818 0.03077,0 0.06359,-0.009 0.03468,-0.009 0.06939,-0.0282 0.0174,0.0296 0.02504,0.0521 0.0077,0.0224 0.0077,0.0402 0,0.0729 -0.07901,0.12049 -0.07709,0.0461 -0.202366,0.0461 -0.208145,0 -0.310292,-0.10562 -0.100218,-0.1071 -0.100218,-0.32725 0,-0.0625 0.01935,-0.33023 0.01935,-0.26924 0.02882,-0.4418 z" />
    <path
       inkscape:connector-curvature="0"
       id="path4539"
       style="font-style:normal;font-variant:normal;font-weight:normal;font-stretch:normal;font-size:medium;line-height:2.15041971px;font-family:'Maiandra GD';-inkscape-font-specification:'Maiandra GD';letter-spacing:3.70416665px;word-spacing:0px;fill:#ff0000;fill-opacity:1;stroke:none;stroke-width:0.26458329"
       d="m 52.545779,270.7279 q -0.06849,0.0386 -0.13044,0.057 -0.06196,0.0185 -0.119019,0.0185 -0.0799,0 -0.10925,-0.0436 -0.02769,-0.0453 -0.02769,-0.17953 0,-0.0772 0.01472,-0.34563 0.01476,-0.26845 0.01476,-0.4614 0,-0.20973 -0.01962,-0.34059 -0.01962,-0.13088 -0.06359,-0.22316 0.06032,-0.0369 0.123912,-0.0554 0.06358,-0.0202 0.125547,-0.0202 0.075,0 0.102712,0.0386 0.02766,0.0369 0.02766,0.13925 0,0.0268 -0.01472,0.29362 -0.01472,0.26677 -0.01472,0.5067 0,0.22483 0.02124,0.37248 0.02293,0.14765 0.06849,0.24328 z m -0.0131,-2.10566 q 0,0.0956 -0.06522,0.15939 -0.06522,0.0638 -0.164678,0.0638 -0.08641,0 -0.136957,-0.0503 -0.05054,-0.0503 -0.05054,-0.1359 0,-0.094 0.06522,-0.15939 0.06522,-0.0671 0.158156,-0.0671 0.08478,0 0.138585,0.0537 0.05543,0.0537 0.05543,0.1359 z" />
    <path
       inkscape:connector-curvature="0"
       id="path4541"
       style="font-style:normal;font-variant:normal;font-weight:normal;font-stretch:normal;font-size:medium;line-height:2.15041971px;font-family:'Maiandra GD';-inkscape-font-specification:'Maiandra GD';letter-spacing:3.70416665px;word-spacing:0px;fill:#ff0000;fill-opacity:1;stroke:none;stroke-width:0.26458329"
       d="m 54.205954,269.5754 q -0.01366,0.16884 -0.03126,0.36321 -0.01647,0.19317 -0.01803,0.21785 -0.0127,0.20052 -0.004,0.33019 0.0088,0.12968 0.03949,0.22325 -0.0603,0.0174 -0.109832,0.0206 -0.04944,0.002 -0.09651,-0.0119 -0.0637,-0.0182 -0.0847,-0.065 -0.02114,-0.0468 -0.01307,-0.17485 0.0017,-0.0278 0.03176,-0.28142 0.03149,-0.25479 0.04607,-0.48462 0.01376,-0.2175 0.006,-0.34061 -0.0079,-0.12312 -0.03642,-0.22708 0.03103,-0.002 0.062,3.3e-4 0.03219,0.003 0.06132,0.0112 0.07339,0.0211 0.113395,0.0794 0.04011,0.057 0.0404,0.14185 0.109107,-0.0537 0.228246,-0.0653 0.119231,-0.0132 0.232779,0.0194 0.138465,0.0395 0.24358,0.13852 0.106593,0.0979 0.157263,0.23326 0.03501,0.0932 0.04472,0.20745 0.01125,0.11311 -0.003,0.33522 -0.0013,0.0232 -0.0099,0.10868 -0.0068,0.086 -0.01079,0.14927 -0.01009,0.15887 6.62e-4,0.27815 0.01227,0.11967 0.04549,0.19511 -0.06731,0.017 -0.116853,0.0201 -0.04815,0.004 -0.08692,-0.008 -0.06508,-0.0187 -0.08905,-0.0631 -0.02256,-0.0457 -0.01598,-0.15056 0.004,-0.0632 0.02538,-0.26911 0.02296,-0.20702 0.03206,-0.35355 0.0177,-0.27919 -0.05067,-0.42585 -0.06818,-0.14819 -0.237119,-0.19635 -0.08586,-0.0245 -0.188077,-0.0128 -0.102137,0.0102 -0.209366,0.0565 z" />
    <path
       inkscape:connector-curvature="0"
       id="path4543"
       style="font-style:normal;font-variant:normal;font-weight:normal;font-stretch:normal;font-size:medium;line-height:2.15041971px;font-family:'Maiandra GD';-inkscape-font-specification:'Maiandra GD';letter-spacing:3.70416665px;word-spacing:0px;fill:#ff0000;fill-opacity:1;stroke:none;stroke-width:0.26458329"
       d="m 57.508339,269.53915 q -0.06733,-0.036 -0.131224,-0.0509 -0.06388,-0.0165 -0.141565,-0.0165 -0.262444,0 -0.436825,0.16325 -0.174387,0.16326 -0.174387,0.41338 0,0.22616 0.153664,0.35945 0.155394,0.13181 0.419555,0.13181 0.113958,0 0.207186,-0.0269 0.09324,-0.0269 0.174384,-0.0839 0.031,0.0374 0.04662,0.0719 0.01737,0.0344 0.01737,0.0659 0,0.0944 -0.126046,0.14978 -0.126033,0.0554 -0.341857,0.0554 -0.378119,0 -0.614649,-0.18722 -0.23654,-0.18872 -0.23654,-0.48976 0,-0.36545 0.286608,-0.61408 0.286604,-0.24862 0.695805,-0.24862 0.150207,0 0.222721,0.0374 0.07424,0.0374 0.07424,0.11383 0,0.0389 -0.02253,0.0764 -0.02253,0.036 -0.07252,0.0794 z" />
    <path
       inkscape:connector-curvature="0"
       id="path4545"
       style="font-style:normal;font-variant:normal;font-weight:normal;font-stretch:normal;font-size:medium;line-height:2.15041971px;font-family:'Maiandra GD';-inkscape-font-specification:'Maiandra GD';letter-spacing:3.70416665px;word-spacing:0px;fill:#ff0000;fill-opacity:1;stroke:none;stroke-width:0.26458329"
       d="m 59.17165,270.68083 q -0.05092,0.0378 -0.09792,0.0567 -0.04702,0.0172 -0.09271,0.0172 -0.06007,0 -0.08226,-0.0412 -0.02233,-0.0429 -0.02233,-0.18034 0,-0.0326 0.01704,-0.5067 0.01839,-0.47404 0.01839,-0.91374 0,-0.42254 -0.01442,-0.57196 -0.01442,-0.14943 -0.04962,-0.23703 0.05746,-0.0395 0.101849,-0.0567 0.04571,-0.0172 0.08487,-0.0172 0.06007,0 0.08357,0.0481 0.02346,0.0464 0.02346,0.18035 0,0.019 -0.01181,0.26793 -0.01052,0.24734 -0.01442,0.48437 0.103153,-0.0928 0.202382,-0.13913 0.100546,-0.0481 0.195865,-0.0481 0.218053,0 0.339481,0.17863 0.122745,0.17691 0.122745,0.49466 0,0.0601 -0.0039,0.20611 -0.0039,0.14428 -0.0039,0.23015 0,0.23188 0.01442,0.3504 0.01571,0.11679 0.05223,0.19408 -0.06007,0.0395 -0.10576,0.0584 -0.0457,0.019 -0.08096,0.019 -0.06136,0 -0.08487,-0.0395 -0.0223,-0.0412 -0.0223,-0.16144 0,-0.079 0.0079,-0.29543 0.0079,-0.21641 0.0079,-0.35554 0,-0.34867 -0.06529,-0.49466 -0.06529,-0.14772 -0.21806,-0.14772 -0.08226,0 -0.165831,0.0395 -0.08226,0.0395 -0.191935,0.13226 -0.0053,0.1374 -0.0079,0.28512 -0.0013,0.1477 -0.0013,0.30229 0,0.28512 0.01442,0.42768 0.01572,0.14256 0.05092,0.23359 z" />
    <path
       inkscape:connector-curvature="0"
       id="path4547"
       style="font-style:normal;font-variant:normal;font-weight:normal;font-stretch:normal;font-size:medium;line-height:2.15041971px;font-family:'Maiandra GD';-inkscape-font-specification:'Maiandra GD';letter-spacing:3.70416665px;word-spacing:0px;fill:#ff0000;fill-opacity:1;stroke:none;stroke-width:0.26458329"
       d="m 62.020811,270.57885 q 0.255497,0 0.417935,-0.15603 0.164019,-0.15748 0.164019,-0.40308 0,-0.23983 -0.16087,-0.39008 -0.159281,-0.1517 -0.414781,-0.1517 -0.260225,0 -0.421087,0.15748 -0.159295,0.15603 -0.159295,0.41463 0,0.22972 0.162454,0.37997 0.162441,0.14881 0.411625,0.14881 z m -0.01899,0.20804 q -0.365885,0 -0.596149,-0.2066 -0.230255,-0.20659 -0.230255,-0.53022 0,-0.34384 0.246025,-0.55766 0.246032,-0.21526 0.638734,-0.21526 0.354855,0 0.583541,0.2037 0.230258,0.20371 0.230258,0.51577 0,0.12569 -0.04417,0.24849 -0.04258,0.12281 -0.116704,0.20949 -0.140367,0.16615 -0.318579,0.24994 -0.17664,0.0824 -0.392705,0.0824 z" />
    <path
       inkscape:connector-curvature="0"
       id="path4549"
       style="font-style:normal;font-variant:normal;font-weight:normal;font-stretch:normal;font-size:medium;line-height:2.15041971px;font-family:'Maiandra GD';-inkscape-font-specification:'Maiandra GD';letter-spacing:3.70416665px;word-spacing:0px;fill:#ff0000;fill-opacity:1;stroke:none;stroke-width:0.26458329"
       d="m 64.497994,270.66736 q -0.06406,0.0397 -0.120511,0.0586 -0.05492,0.019 -0.103735,0.019 -0.07323,0 -0.100685,-0.0466 -0.02739,-0.0483 -0.02739,-0.17932 0,-0.16381 0.01687,-0.62244 0.01687,-0.46037 0.01687,-0.75865 0,-0.36899 -0.01992,-0.55865 -0.01992,-0.19139 -0.06712,-0.29139 0.06103,-0.0397 0.117464,-0.0586 0.05645,-0.0191 0.106785,-0.0191 0.07628,0 0.103742,0.0431 0.02736,0.0431 0.02736,0.17587 0,0.11035 -0.01687,0.57934 -0.01687,0.46899 -0.01687,0.8259 0,0.38277 0.01836,0.55864 0.01992,0.17587 0.06559,0.27415 z" />
    <path
       inkscape:connector-curvature="0"
       id="path4551"
       style="font-style:normal;font-variant:normal;font-weight:normal;font-stretch:normal;font-size:medium;line-height:2.15041971px;font-family:'Maiandra GD';-inkscape-font-specification:'Maiandra GD';letter-spacing:3.70416665px;word-spacing:0px;fill:#ff0000;fill-opacity:1;stroke:none;stroke-width:0.26458329"
       d="m 66.047222,270.42496 q 0.08357,0.0671 0.171052,0.10218 0.08749,0.0351 0.176276,0.0351 0.203692,0 0.335571,-0.16124 0.131876,-0.16282 0.131876,-0.41185 0,-0.25861 -0.121428,-0.41505 -0.120125,-0.15644 -0.319906,-0.15644 -0.08487,0 -0.178883,0.0415 -0.09401,0.0399 -0.186718,0.11813 -0.0026,0.15006 -0.0053,0.36237 -0.0013,0.21072 -0.0026,0.48528 z m -0.0066,0.22669 q -0.0013,0.0335 -0.0026,0.0734 0,0.0399 0,0.11494 0,0.2155 0.01571,0.35279 0.01704,0.13888 0.05223,0.22508 -0.05746,0.0367 -0.101849,0.0527 -0.0444,0.016 -0.08618,0.016 -0.05745,0 -0.08095,-0.0399 -0.02365,-0.0399 -0.02365,-0.14527 0,-0.11174 0.01704,-0.55074 0.01839,-0.43899 0.01839,-0.76784 0,-0.34481 -0.01575,-0.50285 -0.01572,-0.15963 -0.05092,-0.26179 0.02868,-0.0113 0.05615,-0.016 0.02733,-0.006 0.05876,-0.006 0.0666,0 0.104463,0.0463 0.03787,0.0463 0.04047,0.1293 0.09532,-0.0846 0.204999,-0.1293 0.11099,-0.0463 0.216763,-0.0463 0.265058,0 0.442637,0.2155 0.17758,0.21551 0.17758,0.53638 0,0.3448 -0.201085,0.58904 -0.199775,0.24424 -0.480508,0.24424 -0.107069,0 -0.194554,-0.0302 -0.08618,-0.0319 -0.167129,-0.099 z" />
    <path
       style="color:#000000;font-style:normal;font-variant:normal;font-weight:normal;font-stretch:normal;font-size:medium;line-height:normal;font-family:sans-serif;font-variant-ligatures:normal;font-variant-position:normal;font-variant-caps:normal;font-variant-numeric:normal;font-variant-alternates:normal;font-feature-settings:normal;text-indent:0;text-align:start;text-decoration:none;text-decoration-line:none;text-decoration-style:solid;text-decoration-color:#000000;letter-spacing:normal;word-spacing:normal;text-transform:none;writing-mode:lr-tb;direction:ltr;text-orientation:mixed;dominant-baseline:auto;baseline-shift:baseline;text-anchor:start;white-space:normal;shape-padding:0;clip-rule:nonzero;display:inline;overflow:visible;visibility:visible;opacity:1;isolation:auto;mix-blend-mode:normal;color-interpolation:sRGB;color-interpolation-filters:linearRGB;solid-color:#000000;solid-opacity:1;vector-effect:none;fill:#ff0000;fill-opacity:1;fill-rule:nonzero;stroke:none;stroke-width:0.76499993;stroke-linecap:butt;stroke-linejoin:miter;stroke-miterlimit:4;stroke-dasharray:none;stroke-dashoffset:0;stroke-opacity:1;color-rendering:auto;image-rendering:auto;shape-rendering:auto;text-rendering:auto;enable-background:accumulate"
       d="m 46.163316,269.18498 c -0.13483,-0.0119 -0.289116,0.04 -0.421471,0.0764 -0.03799,0.0105 -0.03804,0.079 -0.03123,0.11082 0.0067,0.0317 0.03057,0.0781 0.07341,0.0791 0.121457,0.003 0.251063,-0.0254 0.357541,-0.0161 0.106484,0.009 0.182509,0.0426 0.198352,0.0591 0.05783,0.06 0.0696,0.0756 0.07639,0.0963 0.0068,0.0207 0.01184,0.0756 0.01548,0.19386 6.61e-4,0.0187 0.0013,0.0605 -0.0069,0.0729 -0.0066,0.0102 -0.28406,0.0862 -0.441162,0.16842 -0.09518,0.0498 -0.184153,0.10938 -0.250987,0.19258 -0.06682,0.0832 -0.106352,0.2008 -0.08024,0.31967 0.01502,0.0681 0.05901,0.12747 0.110412,0.16111 0.05141,0.0336 0.106292,0.0459 0.157918,0.0501 0.103226,0.008 0.19687,-0.0124 0.274728,-0.0546 0.106881,-0.0579 0.16343,-0.12136 0.237503,-0.18038 -6.62e-4,0.16887 -0.01121,0.43999 0.0017,0.45922 0.01145,0.0174 0.23569,0.0136 0.250127,-0.003 0.01472,-0.0173 0.0071,-0.90106 -0.002,-1.1933 -0.0037,-0.11832 -0.0026,-0.18853 -0.02753,-0.26446 -0.02494,-0.0759 -0.07335,-0.1288 -0.134155,-0.19193 -0.094,-0.0976 -0.222714,-0.12363 -0.357544,-0.13545 z m 0.268958,0.94489 c 1.46e-4,0.0252 0.0013,0.0431 0,0.0719 -9.92e-4,0.0163 -0.193201,0.18279 -0.356893,0.27153 -0.02054,0.0111 -0.09069,0.0292 -0.1348,0.0256 -0.02217,-0.002 -0.0365,-0.008 -0.04044,-0.0103 -0.004,-0.003 -9.93e-4,0.003 -0.0026,-0.005 -0.0095,-0.0431 -0.0017,-0.0673 0.0307,-0.10783 0.03252,-0.0406 0.09481,-0.0873 0.172038,-0.12774 0.103554,-0.0542 0.219122,-0.0842 0.331859,-0.11875 z"
       id="path4568"
       inkscape:connector-curvature="0"
       sodipodi:nodetypes="csssscccscscscccssccccccscccccccc" />
  </g>
</svg>
